<?xml version="1.0" standalone="no"?>
<!DOCTYPE svg PUBLIC "-//W3C//DTD SVG 20010904//EN"
 "http://www.w3.org/TR/2001/REC-SVG-20010904/DTD/svg10.dtd">
<svg version="1.0" xmlns="http://www.w3.org/2000/svg"
 width="512.000000pt" height="512.000000pt" viewBox="0 0 512.000000 512.000000"
 preserveAspectRatio="xMidYMid meet">
<metadata>
Created by potrace 1.14, written by Peter Selinger 2001-2017
</metadata>
<g transform="translate(0.000000,512.000000) scale(0.100000,-0.100000)"
fill="#000000" stroke="none">
<path d="M0 2560 l0 -2560 2560 0 2560 0 0 2560 0 2560 -2560 0 -2560 0 0
-2560z m2300 1045 l0 -1305 -1045 0 -1045 0 0 1298 c0 714 3 1302 7 1305 3 4
474 7 1045 7 l1038 0 0 -1305z m2605 520 l0 -780 -1042 -3 -1043 -2 0 785 0
785 1043 -2 1042 -3 0 -780z m3 -2607 l-3 -1303 -1042 -3 -1043 -2 0 1305 0
1305 1045 0 1045 0 -2 -1302z m-2608 -523 l0 -785 -1042 2 -1043 3 -3 770 c-1
424 0 776 3 783 3 9 222 12 1045 12 l1040 0 0 -785z"/>
</g>
</svg>
